<svg width="97" height="101" viewBox="0 0 97 101" fill="none" xmlns="http://www.w3.org/2000/svg">
<g clip-path="url(#clip0_223_1837)">
<mask id="mask0_223_1837" style="mask-type:luminance" maskUnits="userSpaceOnUse" x="-1" y="0" width="98" height="101">
<path d="M96.0555 0H-0.000976562V100.38H96.0555V0Z" fill="white"/>
</mask>
<g mask="url(#mask0_223_1837)">
<path d="M90.2965 47.7835L86.2387 47.2145C85.8771 47.1613 85.5208 47.14 85.1644 47.1507C84.8241 47.0443 84.4784 46.9698 84.1168 46.9166L80.0058 46.337C79.3623 46.2466 78.7295 46.2572 78.1179 46.3423C77.5488 46.087 76.9426 45.9062 76.3044 45.8158L71.0766 45.0819C70.3587 44.9808 69.6461 45.0074 68.9653 45.1297C68.5452 44.9223 68.1038 44.7575 67.6358 44.6405C67.9868 43.997 68.3059 43.2631 68.5186 42.4175C68.5505 42.3909 68.5824 42.3643 68.6197 42.3377L68.7101 42.2633C69.1408 41.9282 69.9386 41.3007 70.6565 40.3221C72.7359 37.5142 74.6451 33.2118 73.4858 27.5852C74.5281 27.0108 75.496 26.2769 76.3576 25.3941C79.5166 22.1394 80.9152 17.1563 80.0962 12.0562C79.7665 9.98207 78.4795 8.18985 76.6235 7.20599C74.7674 6.22214 72.5604 6.16895 70.6618 7.05709C69.9758 7.37618 69.2153 7.8229 68.4601 8.42917C68.4654 8.34408 68.4761 8.25899 68.4814 8.1739C68.5878 6.16364 67.7847 4.21187 66.2903 2.86106C64.7959 1.51025 62.775 0.903981 60.786 1.20712C57.6111 1.69639 54.8456 3.81301 53.2023 6.94541C51.7611 6.87095 50.3146 7.25918 49.0808 8.09944L49.1073 8.07817C48.8627 8.22176 48.416 8.49299 47.9108 8.91844C47.3789 6.92945 46.4802 4.96173 45.2145 3.02592C44.0604 1.26562 42.1459 0.148803 40.0452 0.0158496C37.9445 -0.117104 35.9024 0.744437 34.5356 2.3452C30.8076 6.71141 30.4991 12.6518 33.4082 17.5604C32.9561 17.8529 32.5041 18.1986 32.0733 18.64C31.2383 19.4856 30.5204 20.3418 29.9939 20.9907C28.2549 23.1285 25.8989 26.5428 25.4894 31.4674C25.2714 34.0999 25.7766 36.509 26.7817 38.6044C25.6596 38.5086 24.3779 38.5352 23.059 38.8331C22.3358 38.4182 21.5274 38.1257 20.6499 38.0034L17.4111 37.5461C16.9751 37.4876 16.5337 37.4663 16.1029 37.4929C15.6934 37.3493 15.2679 37.2429 14.8265 37.1844L10.3061 36.5516C6.6472 36.0357 3.26486 38.5884 2.749 42.242L0.0633268 61.2916C-0.452534 64.9505 2.10018 68.3329 5.75907 68.8434L8.99783 69.3008C9.43392 69.3593 9.87532 69.3805 10.3061 69.3539C10.7156 69.4975 11.141 69.6039 11.5824 69.6624L12.9599 69.8539C12.8641 70.1783 12.7844 70.5186 12.7365 70.8643L12.6301 71.6142C12.428 73.0501 12.6993 74.4381 13.3215 75.6294L13.1141 77.0865C13.029 77.7088 13.0343 78.315 13.1141 78.9053C12.8588 79.5382 12.6727 80.2136 12.5716 80.9316C12.5184 81.3092 12.4812 81.7346 12.4812 82.192C12.2313 82.8674 12.0877 83.5853 12.0611 84.3245C11.9069 89.4247 15.2998 93.3441 20.5063 94.0727C21.2668 94.1791 22.0114 94.2004 22.7346 94.1525C23.1016 94.2695 23.4792 94.3705 23.8727 94.429L25.2182 94.6205C25.8883 94.7162 26.5531 94.7056 27.1966 94.6045C27.7869 94.8811 28.425 95.0725 29.0951 95.1683L30.531 95.3704C30.6906 95.3916 30.8501 95.3969 31.0097 95.4076C31.1958 95.4501 31.3819 95.4874 31.5787 95.5193L32.7274 95.6788C33.222 95.7479 33.7219 95.7639 34.2112 95.7214C34.6686 95.8969 35.1525 96.0192 35.6471 96.0883L37.1628 96.301C37.7212 96.3808 38.269 96.3808 38.8061 96.3223C39.6198 96.652 40.4973 96.8913 41.4386 97.0243C42.8585 97.2264 44.22 97.136 45.4697 96.8169C46.2728 97.3434 47.1928 97.7103 48.2033 97.8539L49.5115 98.0401C50.8358 98.2262 52.1174 98.0028 53.2449 97.4817C54.5212 98.4283 56.0741 99.0824 57.8291 99.3271C58.7332 99.4547 59.616 99.4547 60.4616 99.359C60.9722 99.5664 61.504 99.7259 62.073 99.8057L65.466 100.284C70.5289 100.997 74.8685 97.8646 75.5492 93.0038C75.6449 92.3177 75.6609 91.637 75.5918 90.9722C75.6981 90.6 75.7779 90.2171 75.8364 89.8235C75.8949 89.3981 75.9162 88.9832 75.9162 88.5684C76.9107 87.3931 77.5914 85.9359 77.8307 84.266C77.8998 83.7715 77.9424 83.1971 77.9105 82.5695C78.0807 82.0005 78.1817 81.4102 78.1977 80.8039C78.2136 80.2083 78.1764 79.6286 78.0913 79.0649C78.8677 79.3255 79.6921 79.5223 80.5589 79.6393C87.5044 80.6178 93.0406 76.4271 94.0192 69.4444L96.0028 55.3406C96.5187 51.6817 93.966 48.2994 90.3124 47.7835" fill="#304DE5"/>
</g>
<path d="M9.3698 43.1675L13.8849 43.8003L14.3529 50.5597L14.805 57.2287L15.6027 50.7352L16.4749 44.1673L19.7136 44.6193L17.0333 63.6796L12.5182 63.0414L12.0448 56.314L11.5928 49.645L10.7898 56.1385L9.92821 62.6798L6.68945 62.2224L9.3698 43.1675Z" fill="#D9F643"/>
<mask id="mask1_223_1837" style="mask-type:luminance" maskUnits="userSpaceOnUse" x="-1" y="0" width="98" height="101">
<path d="M96.0555 0H-0.000976562V100.38H96.0555V0Z" fill="white"/>
</mask>
<g mask="url(#mask1_223_1837)">
<path d="M26.5424 55.2983C27.2072 50.5598 26.9838 49.0016 26.0851 48.874C25.1863 48.7464 24.5428 50.1822 23.8727 54.9207C23.2079 59.6592 23.4313 61.2174 24.3301 61.3451C25.2288 61.4727 25.8723 60.0368 26.5424 55.2983ZM19.7671 54.3464C20.7456 47.3743 22.942 44.795 26.5903 45.3108C30.2651 45.8267 31.6638 48.9112 30.6853 55.8833C29.7067 62.8554 27.5103 65.4347 23.8355 64.9189C20.1872 64.4083 18.7885 61.3238 19.7671 54.3517" fill="#D9F643"/>
<path d="M31.4037 60.6428L33.3874 46.5391L37.4983 47.1187L35.4721 61.5469C35.3498 62.4191 35.722 62.9402 36.3442 63.0307C36.9984 63.1211 37.4717 62.7169 37.594 61.8447L39.6202 47.4166L43.678 47.9856L41.6943 62.0893C41.221 65.4664 38.9714 67.0352 35.7858 66.5885C32.6535 66.1471 30.9304 63.9879 31.4037 60.6428Z" fill="#D9F643"/>
</g>
<path d="M50.3622 68.365L45.1078 67.6258L44.709 48.1348L48.7136 48.6985L48.6125 55.9312L48.4689 63.4617L50.41 56.1811L52.3086 49.1984L56.1483 49.7408L50.3622 68.365Z" fill="#D9F643"/>
<path d="M57.1804 49.8843L66.0032 51.1234L65.5086 54.6387L60.8021 53.9739L60.2277 58.0583L63.8175 58.5635L63.3388 61.9937L59.7438 61.4885L59.0949 66.094L63.8068 66.7535L63.3229 70.1837L54.5054 68.9445L57.1804 49.8843Z" fill="#D9F643"/>
<path d="M70.0131 64.0998L71.917 64.3657L71.9063 64.0307L72.0871 56.2236L70.1088 63.7754L70.0077 64.0945L70.0131 64.0998ZM70.1407 51.7085L75.3684 52.4424L75.7939 71.9388L71.8478 71.3857L71.8797 67.6151L69.1568 67.2322L68.1464 70.8645L64.3599 70.3327L70.1407 51.7085Z" fill="#D9F643"/>
<mask id="mask2_223_1837" style="mask-type:luminance" maskUnits="userSpaceOnUse" x="-1" y="0" width="98" height="101">
<path d="M96.0555 0H-0.000976562V100.38H96.0555V0Z" fill="white"/>
</mask>
<g mask="url(#mask2_223_1837)">
<path d="M77.0922 67.0671L79.0758 52.9634L83.1868 53.5431L81.1605 67.9712C81.0382 68.8434 81.4105 69.3646 82.0327 69.455C82.6869 69.5454 83.1602 69.1412 83.2825 68.269L85.3087 53.8409L89.3665 54.4099L87.3828 68.5137C86.9095 71.8907 84.6599 73.4595 81.4743 73.0128C78.3419 72.5714 76.6188 70.4122 77.0922 67.0671Z" fill="#D9F643"/>
<path d="M20.4853 72.7204L19.2568 72.5449L19.3632 71.795C20.262 71.8907 20.8523 71.6248 21.1235 71.1887L22.001 71.311L21.0331 78.1927L19.7461 78.0119L20.4906 72.7097L20.4853 72.7204Z" fill="#D9F643"/>
</g>
<path d="M26.3293 76.459L26.792 73.2256L23.9361 76.124L26.324 76.459H26.3293ZM26.191 77.4429L22.4736 76.9217L22.6066 75.9591L26.6643 71.9758L28.2119 72.1939L27.5844 76.6399L28.4778 76.7675L28.3396 77.7513L27.4461 77.6237L27.2387 79.0809L25.9783 78.9054L26.1804 77.4482L26.191 77.4429Z" fill="#D9F643"/>
<mask id="mask3_223_1837" style="mask-type:luminance" maskUnits="userSpaceOnUse" x="-1" y="0" width="98" height="101">
<path d="M96.0555 0H-0.000976562V100.38H96.0555V0Z" fill="white"/>
</mask>
<g mask="url(#mask3_223_1837)">
<path d="M34.1851 74.9007C34.2702 74.2838 33.8341 73.837 32.9194 73.7094C32.0153 73.5818 31.4729 73.8849 31.3825 74.5071C31.2974 75.1187 31.7388 75.5601 32.6376 75.6878C33.5523 75.8154 34.0947 75.5123 34.1798 74.9007M33.8926 77.9852C33.9937 77.2672 33.5044 76.7567 32.5099 76.6184C31.5261 76.4802 30.9145 76.8365 30.8134 77.5544C30.7124 78.283 31.2017 78.7829 32.1855 78.9212C33.18 79.0595 33.7916 78.7138 33.8926 77.9852ZM29.5318 77.464C29.6434 76.6557 30.1806 76.1132 30.9889 75.943C30.3773 75.5973 30.0476 74.9964 30.1433 74.3103C30.3082 73.1404 31.4463 72.5181 33.0524 72.7415C34.6638 72.9702 35.5891 73.8796 35.4243 75.0496C35.3285 75.7356 34.8499 76.2249 34.1639 76.3844C34.8924 76.7673 35.2594 77.4427 35.1477 78.2458C34.9722 79.5062 33.7331 80.1125 32.0472 79.8785C30.3454 79.6391 29.3563 78.7085 29.5318 77.4587" fill="#D9F643"/>
<path d="M41.0828 75.055L40.7797 77.2089L42.6091 77.4641C43.3484 77.5652 43.8323 77.262 43.928 76.5547C44.0291 75.8474 43.6462 75.4113 42.9123 75.3103L41.0828 75.055ZM39.9235 73.8372L43.1463 74.2892C44.6194 74.4966 45.4171 75.422 45.231 76.7302C45.0502 78.0172 44.0397 78.698 42.5772 78.4959L40.6414 78.2246L40.2638 80.9103L38.9556 80.7242L39.9235 73.8425V73.8372Z" fill="#D9F643"/>
</g>
<path d="M47.0064 79.2353L49.1124 79.5331L49.0592 79.2672L48.4955 76.2891L47.134 78.996L47.0117 79.2406L47.0064 79.2353ZM47.9264 74.9648L49.49 75.1829L51.0695 82.4262L49.6336 82.2241L49.3038 80.5649L46.5278 80.1766L45.7566 81.6817L44.4111 81.4902L47.9264 74.9648Z" fill="#D9F643"/>
<mask id="mask4_223_1837" style="mask-type:luminance" maskUnits="userSpaceOnUse" x="-1" y="0" width="98" height="101">
<path d="M96.0555 0H-0.000976562V100.38H96.0555V0Z" fill="white"/>
</mask>
<g mask="url(#mask4_223_1837)">
<path d="M56.7811 82.1069C56.2068 82.8301 55.4144 83.1492 54.4571 83.0163C52.7074 82.7716 51.6917 81.3464 52.0161 79.0542C52.3405 76.7621 53.787 75.6613 55.6856 75.9325C57.3502 76.1665 58.3819 77.2939 58.4085 79.0436L57.0896 78.8575C57.0417 77.7672 56.4248 77.0972 55.5367 76.9748C54.4146 76.8153 53.5849 77.5811 53.3509 79.2457C53.1169 80.9049 53.7126 81.8622 54.8241 82.0218C55.7654 82.1547 56.5525 81.6335 56.9247 80.4901L55.1378 80.2402L55.2814 79.2297L58.3394 79.6605L57.8129 83.3885L56.6216 83.2183L56.7758 82.1175L56.7811 82.1069Z" fill="#D9F643"/>
</g>
<path d="M60.1637 76.6824L65.1894 77.3897L65.0458 78.432L61.3284 77.9109L61.0731 79.6978L63.8386 80.086L63.695 81.1124L60.9295 80.7242L60.6477 82.7291L64.365 83.2503L64.2215 84.2714L59.1958 83.5694L60.1637 76.6824Z" fill="#D9F643"/>
<mask id="mask5_223_1837" style="mask-type:luminance" maskUnits="userSpaceOnUse" x="-1" y="0" width="98" height="101">
<path d="M96.0555 0H-0.000976562V100.38H96.0555V0Z" fill="white"/>
</mask>
<g mask="url(#mask5_223_1837)">
<path d="M65.5459 82.0326L66.8435 82.2134C66.8435 83.2451 67.3222 83.7929 68.3273 83.9365C69.2792 84.0694 69.8164 83.7663 69.8855 83.2504C69.9866 82.5219 69.1037 82.1709 68.1518 81.7614C67.0243 81.2827 65.8012 80.719 65.9926 79.3629C66.1575 78.2035 67.2583 77.5547 68.8432 77.7781C70.5662 78.0174 71.5448 79.0385 71.5022 80.618L70.2631 80.4425C70.2418 79.5065 69.7047 78.9321 68.7421 78.7938C67.8593 78.6715 67.386 78.964 67.3168 79.4373C67.2211 80.1074 68.0242 80.4478 68.9336 80.8466C70.0876 81.3412 71.4012 81.9156 71.2044 83.3196C71.0342 84.5162 69.9121 85.1809 68.2369 84.9469C66.4393 84.6917 65.498 83.6599 65.5512 82.022" fill="#D9F643"/>
<path d="M18.7516 84.5321L20.0492 84.7129C20.0492 85.7446 20.5279 86.2924 21.533 86.436C22.4849 86.569 23.0221 86.2658 23.0912 85.75C23.1923 85.0214 22.3094 84.6704 21.3522 84.2609C20.2247 83.7822 19.0015 83.2185 19.193 81.8624C19.3579 80.703 20.4587 80.0542 22.0435 80.2776C23.7666 80.5169 24.7452 81.538 24.7026 83.1175L23.4635 82.942C23.4422 82.006 22.9051 81.4316 21.9372 81.2933C21.0544 81.171 20.581 81.4635 20.5119 81.9368C20.4162 82.6069 21.2245 82.9473 22.1286 83.3462C23.2827 83.8407 24.5962 84.4151 24.3995 85.8191C24.2293 87.021 23.1018 87.6804 21.4319 87.4464C19.6344 87.1912 18.6931 86.1595 18.7463 84.5215" fill="#D9F643"/>
</g>
<path d="M27.399 85.5585L29.505 85.8563L29.4518 85.5904L28.8881 82.6123L27.5266 85.3192L27.4043 85.5638L27.399 85.5585ZM28.319 81.2827L29.8825 81.5008L31.462 88.7441L30.0261 88.542L29.6964 86.8827L26.9203 86.4945L26.1492 87.9995L24.8037 87.8081L28.319 81.2827Z" fill="#D9F643"/>
<path d="M33.4718 82.0112L34.9768 82.2186L36.1043 84.9734L37.2211 87.7176L37.5615 85.1702L37.9072 82.6335L39.0559 82.793L38.088 89.6747L36.5776 89.462L35.4448 86.7284L34.3334 84.0055L33.9983 86.5263L33.6526 89.0525L32.5039 88.8929L33.4718 82.0112Z" fill="#D9F643"/>
<mask id="mask6_223_1837" style="mask-type:luminance" maskUnits="userSpaceOnUse" x="-1" y="0" width="98" height="101">
<path d="M96.0555 0H-0.000976562V100.38H96.0555V0Z" fill="white"/>
</mask>
<g mask="url(#mask6_223_1837)">
<path d="M39.6782 87.473L40.9759 87.6538C40.9759 88.6856 41.4545 89.2333 42.4596 89.3769C43.4116 89.5099 43.9487 89.2067 44.0178 88.6909C44.1189 87.9623 43.2361 87.6113 42.2841 87.2018C41.1567 86.7232 39.9335 86.1594 40.1249 84.8033C40.2898 83.644 41.3907 82.9951 42.9755 83.2185C44.6986 83.4578 45.6771 84.4789 45.6346 86.0584L44.3954 85.8829C44.3795 84.9469 43.837 84.3725 42.8744 84.2343C41.9916 84.1119 41.5183 84.4045 41.4492 84.8778C41.3534 85.5479 42.1565 85.8882 43.0659 86.2871C44.2199 86.7817 45.5335 87.356 45.3367 88.76C45.1666 89.9619 44.0444 90.6214 42.3692 90.3874C40.5717 90.1321 39.6304 89.1004 39.6835 87.4624" fill="#D9F643"/>
<path d="M51.261 85.5638L50.9579 87.7177L52.7873 87.9729C53.5265 88.074 54.0105 87.7708 54.1062 87.0635C54.2073 86.3562 53.8244 85.9201 53.0904 85.8191L51.261 85.5638ZM50.0963 84.3459L53.3191 84.798C54.7923 85.0054 55.5847 85.9308 55.4038 87.239C55.223 88.526 54.2126 89.2067 52.7501 89.0046L50.8143 88.7334L50.4367 91.4191L49.1284 91.233L50.0963 84.3513V84.3459Z" fill="#D9F643"/>
<path d="M56.2814 89.659L56.893 85.3035L58.2119 85.4896L57.5897 89.9037C57.4514 90.8769 58.0258 91.5098 58.9192 91.6374C59.834 91.765 60.5679 91.3183 60.7061 90.3557L61.3284 85.931L62.5994 86.1065L61.9878 90.4727C61.7538 92.1426 60.4775 92.9457 58.7544 92.7063C57.0419 92.467 56.0474 91.3343 56.2814 89.659Z" fill="#D9F643"/>
<path d="M64.7322 90.3502L64.4503 92.3392L66.4393 92.6158C67.1094 92.7115 67.5508 92.4084 67.6412 91.7808C67.7316 91.1533 67.3913 90.7225 66.7212 90.6268L64.7375 90.3449L64.7322 90.3502ZM65.1311 87.5103L64.8758 89.3398L66.785 89.6057C67.3966 89.6908 67.8221 89.4302 67.9071 88.8292C67.9922 88.2389 67.6519 87.8613 67.0403 87.7763L65.1311 87.5103ZM63.9664 86.2925L67.2583 86.7552C68.6357 86.9466 69.3643 87.7603 69.2048 88.8824C69.109 89.5525 68.6889 90.0524 68.0188 90.2598C68.6995 90.6374 69.0293 91.265 68.9176 92.0627C68.7527 93.222 67.8114 93.8496 66.3861 93.6528L62.9932 93.1742L63.9611 86.2925H63.9664Z" fill="#D9F643"/>
<path d="M60.8761 32.3132C64.1308 31.1591 64.7052 28.3565 65.6465 25.7931C65.7475 25.8304 65.8911 25.841 65.9177 25.8995C67.4812 29.3137 67.8429 32.8716 65.2742 36.339C65.0508 36.6368 64.7318 36.8708 64.4393 37.1048C63.2905 38.0196 62.312 38.9821 62.062 40.5829C61.945 41.3434 61.36 42.0773 60.8601 42.7208C60.6315 43.0133 60.0784 43.2473 59.7008 43.2101C57.1321 42.9389 54.5634 42.6144 52.0001 42.2581C47.8041 41.6731 43.6027 41.0669 39.412 40.4446C35.6095 39.8809 31.7592 36.6103 32.1421 32.0207C32.3708 29.2765 33.5514 27.2024 35.1735 25.2081C35.6946 24.5646 36.2318 23.9371 36.8115 23.3468C37.0667 23.0862 37.4549 22.9479 37.9389 22.8362C36.9391 25.3996 37.2263 27.8247 38.2633 30.2072C38.4069 30.5316 38.6409 30.8135 38.9281 31.2655C39.0504 29.9945 39.0929 28.9308 39.2631 27.8938C39.6354 25.5804 41.4276 24.187 43.039 22.8788C45.0812 21.2248 46.2884 19.3635 46.2193 16.7204C46.2139 16.4704 46.2831 16.2204 46.5649 15.896C47.001 16.5555 47.5169 17.1777 47.8626 17.885C48.4263 19.0284 49.0698 20.1825 49.3197 21.4057C49.5325 22.4693 49.3995 23.6659 49.1389 24.7348C48.8411 25.9633 48.1817 27.1014 47.7881 28.3139C47.5116 29.1595 47.4105 30.0636 47.1872 31.1751C48.3891 29.7764 49.6122 28.7713 50.2823 27.479C51.2821 25.5485 51.447 23.3787 50.8035 21.2355C50.0271 18.6402 50.7929 16.3374 52.1171 14.1411C52.2235 13.9656 52.4787 13.8805 52.8563 13.6199C52.8882 14.5718 52.7978 15.3642 52.9733 16.0875C53.2126 17.0448 53.4679 18.0978 54.0582 18.837C55.4463 20.5707 56.6322 22.3682 57.18 24.6231C57.9298 21.8258 59.4349 19.6826 62.0727 18.5445C63.5564 17.901 65.0668 17.0873 67.0292 17.7468C66.6676 18.1509 66.4336 18.5179 66.1038 18.7572C64.6307 19.8155 63.5884 21.2195 62.8438 22.8362C62.6098 23.3468 62.445 24.0009 62.546 24.5327C63.0672 27.1599 62.4556 29.5265 61.126 31.7707C61.0622 31.8771 61.0197 31.9888 60.8655 32.3185" fill="#D9F643"/>
<path d="M66.9497 22.3257C66.9976 21.3153 67.4815 20.6027 68.2261 20.1612C69.6566 19.3157 70.4171 18.1191 70.8798 16.5343C71.284 15.1515 71.986 13.8114 73.4857 13.1094C74.3579 18.5552 71.3106 22.8948 66.9497 22.3204" fill="#D9F643"/>
<path d="M39.6145 6.69019C41.4014 9.42372 42.2629 12.2689 41.5343 15.4651C41.3961 16.082 41.1621 16.5447 40.5399 15.9278C38.1733 13.5772 36.9873 9.76408 39.6092 6.69019" fill="#D9F643"/>
<path d="M59.2758 16.6779C57.1486 13.7742 58.7759 8.28055 61.8019 7.81787C61.6371 10.9396 60.7277 13.7902 59.2758 16.6779Z" fill="#D9F643"/>
</g>
</g>
<defs>
<clipPath id="clip0_223_1837">
<rect width="96.0565" height="100.38" fill="white"/>
</clipPath>
</defs>
</svg>
